<?xml version="1.0" standalone="no"?><!DOCTYPE svg PUBLIC "-//W3C//DTD SVG 1.1//EN"
        "http://www.w3.org/Graphics/SVG/1.1/DTD/svg11.dtd">
<svg t="1609127250324" class="icon" viewBox="0 0 4091 1024" version="1.1" xmlns="http://www.w3.org/2000/svg" p-id="1054"
     xmlns:xlink="http://www.w3.org/1999/xlink" width="799.0234375" height="200">
    <defs>
        <style type="text/css"></style>
    </defs>
    <path d="M565.16567 210.289459l168.85261 0 0 429.788603c0 33.769062-17.396941 63.444992-41.957274 91.074253-13.303501 13.302989-26.607104 24.559309-41.957274 35.815731-27.630387 19.44279-57.307546 28.652544-84.937933 31.722496l-2.046698 0-167.829261 0 0-588.401064L565.165729 210.289478zM529.348506 323.876454l0 365.320313 71.63444 0 0-365.320313L529.348509 323.876454zM340.028826 18.9312l0 278.339286c0 39.908966-47.074099 72.654746-66.517709 89.027686 19.44361 16.372941 66.517709 48.095437 66.517709 86.981018l0 213.870995c0 37.862298-62.424269 112.563712-115.638477 115.633562l-79.821234 0 0 49.118698c0 66.514944-74.704486 128.93655-143.268864 128.93655l0-961.907826L340.028916 18.931168zM173.222912 136.611328l-28.653776 0 0 550.538735 55.260854 0 0-278.339286-26.607078 0-18.420285 0c2.046669 0 3.070054 0 4.09344-1.023283 1.023386 0 1.023386 0 1.023386-1.023283l11.256832-11.25632 2.046669-2.046566c15.350272-16.372941 26.607104-40.93225 26.607104-56.281805l0-200.568015L173.223004 136.611504zM964.271821 18.9312c0 30.699213-22.513664 117.68023-54.237491 117.68023l0 708.127889c0 93.120819-97.21815 136.099738-142.245581 136.099738l0-128.936581 0-715.291033-407.292962 0 0-117.680213L964.271897 18.931231zM2003.994726 869.298586c-27.630387 40.93225-60.3776 111.540326-96.194867 111.540326l-859.613286 0 0-111.540376 380.685884 0 0-91.074252-369.429043 0 0-106.423845 369.429043 0 0-78.794577-369.429043 0 0-574.074777 917.944187 0 0 447.184809c-3.070054 45.025485-101.31159 126.889984-162.712474 126.889984l-213.879972 0 0 78.794577 382.732582 0c-19.44361 37.862298-57.307546 106.423808-100.288205 106.423808l-282.444365 0 0 91.074252L2003.994634 869.298515zM1600.795034 486.582067l206.716528 0 0-358.157169-206.716528 0 0 123.82005 191.366291 0c-8.186778 8.18647-72.657818 91.074253-84.937933 98.23744l-2.046698 0c-11.256832 7.163187-19.44361 11.25632-30.700442 11.25632l-73.681139 0L1600.795113 486.582097zM1428.872397 361.738752l-202.623132 0 0 124.843356 202.623132 0L1428.872397 361.738741zM1428.872397 128.42496l-202.623132 0 0 123.82005 202.623132 0L1428.872397 128.424928zM3039.623885 855.995597c-10.233446 39.908966-74.704486 124.843315-126.895309 124.843315l-694.854073 0c-73.681101 0-113.591706-67.538227-113.591706-136.099738l0-825.808102 910.780743 0 0 433.881828c-3.070054 45.025485-98.241536 132.006502-151.455642 132.006502l-585.355714 0 0 271.176143L3039.623973 855.995545zM2649.728 462.022758l193.412989 0 0-320.29484-193.412989 0L2649.728 462.022749zM2278.252237 462.022758l204.66983 0 0-320.29484-204.66983 0L2278.252237 462.022749zM4090.603622 855.995597c-10.233446 39.908966-74.704486 124.843315-126.895309 124.843315l-694.854073 0c-75.727872 0-113.591706-67.538227-113.591706-136.099738l0-825.808102 910.780743 0 0 433.881828c-3.070054 45.025485-98.241536 132.006502-151.455642 132.006502l-587.402412 0 0 271.176143L4090.60355 855.995545zM3700.707533 462.022758l194.436338 0 0-320.29484-194.436338 0L3700.707533 462.022749zM3329.231872 462.022758l202.623132 0 0-320.29484-202.623132 0L3329.231872 462.022749z"
          p-id="1055"></path>
</svg>